<svg width="9" height="9" viewBox="0 0 9 9" fill="none" xmlns="http://www.w3.org/2000/svg">
<path d="M1.22578 8.75C0.805781 8.04 0.520781 7.295 0.370781 6.515C0.220781 5.725 0.205781 4.945 0.325781 4.175C0.445781 3.405 0.695781 2.67 1.07578 1.97C1.45578 1.26 1.96078 0.624999 2.59078 0.0649993L3.40078 0.574998C3.55078 0.674999 3.61578 0.8 3.59578 0.95C3.58578 1.09 3.54078 1.2 3.46078 1.28C3.20078 1.6 2.97578 1.99 2.78578 2.45C2.60578 2.91 2.49078 3.405 2.44078 3.935C2.39078 4.455 2.41578 4.995 2.51578 5.555C2.61578 6.115 2.82078 6.655 3.13078 7.175C3.26078 7.385 3.29578 7.575 3.23578 7.745C3.18578 7.905 3.06578 8.025 2.87578 8.105L1.22578 8.75ZM5.78578 8.75C5.36578 8.04 5.08078 7.295 4.93078 6.515C4.78078 5.725 4.76578 4.945 4.88578 4.175C5.00578 3.405 5.25578 2.67 5.63578 1.97C6.01578 1.26 6.52078 0.624999 7.15078 0.0649993L7.96078 0.574998C8.11078 0.674999 8.17578 0.8 8.15578 0.95C8.14578 1.09 8.10078 1.2 8.02078 1.28C7.76078 1.6 7.53578 1.99 7.34578 2.45C7.16578 2.91 7.05078 3.405 7.00078 3.935C6.95078 4.455 6.97578 4.995 7.07578 5.555C7.17578 6.115 7.38078 6.655 7.69078 7.175C7.82078 7.385 7.85578 7.575 7.79578 7.745C7.74578 7.905 7.62578 8.025 7.43578 8.105L5.78578 8.75Z" fill="#7B7B7B"/>
</svg>
