<svg width="9" height="9" viewBox="0 0 9 9" fill="none" xmlns="http://www.w3.org/2000/svg">
<path d="M7.77422 8.75C8.19422 8.04 8.47922 7.295 8.62922 6.515C8.77922 5.725 8.79422 4.945 8.67422 4.175C8.55422 3.405 8.30422 2.67 7.92422 1.97C7.54422 1.26 7.03922 0.624999 6.40922 0.0649993L5.59922 0.574998C5.44922 0.674999 5.38422 0.8 5.40422 0.95C5.41422 1.09 5.45922 1.2 5.53922 1.28C5.79922 1.6 6.02422 1.99 6.21422 2.45C6.39422 2.91 6.50922 3.405 6.55922 3.935C6.60922 4.455 6.58422 4.995 6.48422 5.555C6.38422 6.115 6.17922 6.655 5.86922 7.175C5.73922 7.385 5.70422 7.575 5.76422 7.745C5.81422 7.905 5.93422 8.025 6.12422 8.105L7.77422 8.75ZM3.21422 8.75C3.63422 8.04 3.91922 7.295 4.06922 6.515C4.21922 5.725 4.23422 4.945 4.11422 4.175C3.99422 3.405 3.74422 2.67 3.36422 1.97C2.98422 1.26 2.47922 0.624999 1.84922 0.0649993L1.03922 0.574998C0.889219 0.674999 0.824219 0.8 0.844218 0.95C0.854218 1.09 0.899218 1.2 0.979218 1.28C1.23922 1.6 1.46422 1.99 1.65422 2.45C1.83422 2.91 1.94922 3.405 1.99922 3.935C2.04922 4.455 2.02422 4.995 1.92422 5.555C1.82422 6.115 1.61922 6.655 1.30922 7.175C1.17922 7.385 1.14422 7.575 1.20422 7.745C1.25422 7.905 1.37422 8.025 1.56422 8.105L3.21422 8.75Z" fill="#7B7B7B"/>
</svg>
